<svg width="17.000000" height="17.000000" viewBox="0 0 17 17" fill="none" xmlns="http://www.w3.org/2000/svg" xmlns:xlink="http://www.w3.org/1999/xlink">
	<desc>
			Created with Pixso.
	</desc>
	<defs>
		<clipPath id="clip8_665">
			<rect id="Frame" rx="-0.500000" width="16.000000" height="16.000000" transform="translate(0.000000 0.500000)" fill="white" fill-opacity="0"/>
		</clipPath>
	</defs>
	<rect id="Frame" rx="-0.500000" width="16.000000" height="16.000000" transform="translate(0.000000 0.500000)" fill="#FFFFFF" fill-opacity="0"/>
	<g clip-path="url(#clip8_665)">
		<path id="Vector" d="M7 11.44L11.67 6.77L10.96 6.07L7 10.03L5.01 8.04L4.31 8.74L7 11.44ZM8 15.08C7.11 15.09 6.24 14.91 5.43 14.56C4.65 14.23 3.94 13.75 3.34 13.15C2.74 12.55 2.26 11.84 1.93 11.06C1.58 10.25 1.4 9.38 1.41 8.5C1.4 7.61 1.58 6.74 1.93 5.93C2.26 5.15 2.74 4.44 3.34 3.84C3.94 3.24 4.65 2.76 5.43 2.43C6.24 2.08 7.11 1.9 7.99 1.91C8.88 1.9 9.75 2.08 10.56 2.43C11.34 2.76 12.05 3.24 12.65 3.84C13.25 4.44 13.73 5.15 14.06 5.93C14.41 6.74 14.59 7.61 14.58 8.49C14.59 9.38 14.41 10.25 14.06 11.06C13.73 11.84 13.25 12.55 12.65 13.15C12.05 13.75 11.34 14.23 10.56 14.56C9.75 14.91 8.88 15.09 8 15.08ZM8 14.09C9.55 14.09 10.87 13.55 11.96 12.46C13.05 11.38 13.59 10.05 13.59 8.5C13.59 6.94 13.05 5.62 11.96 4.53C10.87 3.44 9.55 2.9 8 2.9C6.44 2.9 5.12 3.44 4.03 4.53C2.94 5.62 2.4 6.94 2.4 8.5C2.4 10.05 2.94 11.37 4.03 12.46C5.12 13.55 6.44 14.09 8 14.09Z" fill="#66FCF1" fill-opacity="1.000000" fill-rule="nonzero"/>
	</g>
</svg>
