<svg width="17.000000" height="17.000000" viewBox="0 0 17 17" fill="none" xmlns="http://www.w3.org/2000/svg" xmlns:xlink="http://www.w3.org/1999/xlink">
	<desc>
			Created with Pixso.
	</desc>
	<defs>
		<clipPath id="clip8_42">
			<rect id="Frame" rx="-0.500000" width="16.000000" height="16.000000" transform="translate(0.500000 0.500000)" fill="white" fill-opacity="0"/>
		</clipPath>
	</defs>
	<rect id="Frame" rx="-0.500000" width="16.000000" height="16.000000" transform="translate(0.500000 0.500000)" fill="#FFFFFF" fill-opacity="0"/>
	<g clip-path="url(#clip8_42)">
		<path id="Vector" d="M8.01 11.79L9 11.79L9 7.8L8.01 7.8L8.01 11.79ZM8.49 6.63C8.56 6.63 8.64 6.62 8.7 6.59C8.77 6.57 8.83 6.53 8.88 6.48C8.93 6.43 8.97 6.37 9 6.3C9.03 6.23 9.04 6.16 9.04 6.09C9.04 6.02 9.03 5.95 9 5.88C8.97 5.81 8.94 5.75 8.88 5.7C8.83 5.65 8.77 5.61 8.71 5.58C8.64 5.56 8.57 5.54 8.5 5.54C8.43 5.54 8.35 5.56 8.29 5.58C8.22 5.61 8.16 5.65 8.11 5.7C8.06 5.75 8.02 5.81 7.99 5.88C7.96 5.94 7.95 6.01 7.95 6.09C7.95 6.16 7.96 6.23 7.99 6.3C8.02 6.36 8.06 6.42 8.11 6.47C8.16 6.53 8.22 6.57 8.28 6.59C8.35 6.62 8.42 6.63 8.49 6.63ZM8.5 15.08C7.61 15.09 6.74 14.91 5.93 14.56C5.15 14.23 4.44 13.75 3.84 13.15C3.24 12.55 2.76 11.84 2.43 11.06C2.08 10.25 1.9 9.38 1.91 8.5C1.9 7.61 2.08 6.74 2.43 5.93C2.76 5.15 3.24 4.44 3.84 3.84C4.44 3.24 5.15 2.76 5.93 2.43C6.74 2.08 7.61 1.9 8.49 1.91C9.38 1.9 10.25 2.08 11.06 2.43C11.84 2.76 12.55 3.24 13.15 3.84C13.75 4.44 14.23 5.15 14.56 5.93C14.91 6.74 15.09 7.61 15.08 8.49C15.09 9.38 14.91 10.25 14.56 11.06C14.23 11.84 13.75 12.55 13.15 13.15C12.55 13.75 11.84 14.23 11.06 14.56C10.25 14.91 9.38 15.09 8.5 15.08ZM8.5 14.09C10.05 14.09 11.37 13.55 12.46 12.46C13.55 11.37 14.09 10.05 14.09 8.5C14.09 6.94 13.55 5.62 12.46 4.53C11.37 3.44 10.05 2.9 8.5 2.9C6.94 2.9 5.62 3.44 4.53 4.53C3.44 5.62 2.9 6.94 2.9 8.5C2.9 10.05 3.44 11.37 4.53 12.46C5.62 13.55 6.94 14.09 8.5 14.09Z" fill="#FFF371" fill-opacity="1.000000" fill-rule="nonzero"/>
	</g>
</svg>
