<svg width="17.000000" height="17.000000" viewBox="0 0 17 17" fill="none" xmlns="http://www.w3.org/2000/svg" xmlns:xlink="http://www.w3.org/1999/xlink">
	<desc>
			Created with Pixso.
	</desc>
	<defs>
		<clipPath id="clip8_881">
			<rect id="Frame" rx="-0.500000" width="16.000000" height="16.000000" transform="translate(0.000000 0.500000)" fill="white" fill-opacity="0"/>
		</clipPath>
	</defs>
	<rect id="Frame" rx="-0.500000" width="16.000000" height="16.000000" transform="translate(0.000000 0.500000)" fill="#FFFFFF" fill-opacity="0"/>
	<g clip-path="url(#clip8_881)">
		<path id="Vector" d="M7.29 11.09C7.29 10.33 7.4 9.73 7.61 9.28C7.82 8.83 8.23 8.35 8.83 7.85C9.26 7.5 9.59 7.15 9.81 6.81C10.04 6.46 10.15 6.06 10.15 5.64C10.15 5.07 9.95 4.59 9.56 4.22C9.17 3.85 8.63 3.66 7.94 3.66C7.33 3.66 6.85 3.82 6.51 4.14C6.17 4.44 5.9 4.81 5.71 5.21L4.49 4.67C4.77 4.01 5.22 3.43 5.8 3.01C6.38 2.58 7.1 2.37 7.94 2.37C9.09 2.37 9.97 2.68 10.59 3.32C11.2 3.96 11.51 4.73 11.51 5.63C11.51 6.16 11.38 6.68 11.13 7.15C10.88 7.61 10.5 8.06 10.01 8.5C9.4 9.03 9.02 9.45 8.88 9.77C8.74 10.09 8.66 10.53 8.66 11.09L7.29 11.09ZM7.94 15.15C7.67 15.15 7.44 15.05 7.24 14.86C7.15 14.77 7.07 14.66 7.02 14.54C6.97 14.42 6.95 14.29 6.95 14.16C6.95 13.89 7.05 13.66 7.24 13.46C7.44 13.27 7.67 13.17 7.94 13.17C8.21 13.17 8.44 13.27 8.64 13.46C8.83 13.66 8.93 13.89 8.93 14.16C8.93 14.43 8.83 14.66 8.64 14.86C8.55 14.95 8.44 15.03 8.32 15.08C8.2 15.13 8.07 15.15 7.94 15.15Z" fill="#576175" fill-opacity="1.000000" fill-rule="nonzero"/>
	</g>
</svg>
